<?xml version="1.0" standalone="no"?>
<!DOCTYPE svg PUBLIC "-//W3C//DTD SVG 20010904//EN"
 "http://www.w3.org/TR/2001/REC-SVG-20010904/DTD/svg10.dtd">
<svg version="1.0" xmlns="http://www.w3.org/2000/svg"
 width="1200.000000pt" height="724.000000pt" viewBox="0 0 1200.000000 724.000000"
 preserveAspectRatio="xMidYMid meet">

<g transform="translate(0.000000,724.000000) scale(0.100000,-0.100000)"
fill="#000000" stroke="none">
<path d="M0 3620 l0 -3620 6000 0 6000 0 0 3620 0 3620 -6000 0 -6000 0 0
-3620z m5780 1955 l0 -385 -495 0 -495 0 0 -755 0 -755 -430 0 -430 0 0 755 0
755 -520 0 c-286 0 -520 -4 -520 -9 0 -13 44 -75 184 -256 228 -295 266 -352
290 -434 21 -71 21 -206 0 -290 -58 -234 -238 -433 -440 -486 -106 -28 -384
-35 -1401 -35 l-1003 0 0 415 0 415 894 0 c506 0 897 4 900 9 7 11 -10 32
-158 201 -221 251 -280 345 -296 472 -25 206 50 418 205 573 106 106 218 166
349 185 28 4 797 8 1709 9 l1657 1 0 -385z m1966 -765 c216 -624 393 -1138
394 -1142 0 -9 -548 -9 -734 1 l-129 6 -28 95 c-16 52 -36 119 -45 148 l-15
52 -404 0 -404 0 -41 -132 c-22 -73 -43 -139 -45 -145 -3 -10 -101 -13 -441
-13 -411 0 -436 1 -429 18 3 9 180 520 392 1135 l386 1117 575 -2 575 -3 393
-1135z m1949 1130 c384 -10 412 -14 542 -76 171 -82 333 -262 386 -429 19 -60
22 -93 22 -230 0 -149 -2 -165 -27 -233 -15 -41 -42 -99 -60 -130 -46 -77
-156 -192 -233 -242 -36 -23 -65 -44 -65 -46 0 -2 11 -10 24 -19 20 -13 108
-17 601 -25 318 -5 579 -11 580 -12 1 -2 5 -186 9 -410 l7 -408 -623 0 c-699
1 -889 8 -958 38 -86 37 -229 154 -515 420 l-120 112 -3 -285 -2 -285 -455 0
-455 0 0 1135 0 1135 498 -1 c273 0 655 -4 847 -9z m-4175 -2402 c6 -18 182
-526 392 -1128 209 -602 383 -1101 386 -1108 3 -10 -84 -12 -429 -10 l-432 3
-46 146 -45 146 -285 6 c-156 4 -339 7 -406 7 l-122 0 -44 -151 -44 -151 -422
4 c-232 2 -424 6 -427 9 -4 4 715 2105 769 2247 3 9 127 12 574 12 l569 0 12
-32z m-4241 13 l134 -6 89 -250 c114 -325 119 -337 125 -331 3 2 51 137 108
298 l103 293 415 3 415 2 80 -232 c43 -128 90 -266 103 -306 12 -39 26 -69 31
-64 4 4 46 120 94 257 47 138 93 269 101 293 l15 42 429 0 c236 0 429 -1 429
-2 0 -2 -175 -511 -389 -1133 l-388 -1130 -299 -3 -299 -2 -160 466 c-106 309
-163 461 -169 452 -4 -8 -81 -214 -170 -458 l-163 -445 -294 -3 -294 -2 -380
1116 c-209 614 -381 1125 -383 1135 -3 18 9 19 290 18 161 -1 353 -4 427 -8z
m10189 -388 l-3 -398 -532 4 c-347 2 -533 0 -533 -6 0 -14 41 -69 224 -299
222 -278 256 -347 256 -522 -1 -205 -102 -397 -281 -534 -84 -64 -124 -83
-224 -105 -61 -14 -200 -17 -1053 -20 -584 -2 -1025 0 -1087 6 -90 8 -113 14
-172 45 -87 47 -180 121 -376 304 -87 81 -181 167 -208 191 l-49 44 0 -303 0
-303 -92 7 c-50 3 -252 6 -450 6 l-358 0 0 1130 0 1131 818 -3 c815 -3 817 -4
890 -26 146 -45 270 -121 373 -228 149 -156 228 -333 229 -510 0 -78 -39 -215
-88 -309 -41 -79 -174 -220 -254 -270 -27 -17 -48 -32 -48 -35 0 -3 10 -12 23
-20 19 -12 114 -15 627 -18 333 -2 629 0 658 5 l53 8 -63 76 c-35 41 -101 117
-147 167 -188 205 -251 338 -251 536 0 314 203 563 516 629 57 13 197 16 837
16 l767 1 -2 -397z"/>
<path d="M2397 5809 c-164 -39 -319 -190 -377 -370 -36 -108 -35 -242 1 -319
29 -62 108 -164 270 -346 136 -155 169 -200 169 -235 0 -52 -29 -105 -75 -138
l-43 -31 -846 0 -846 0 0 -276 0 -275 1083 4 c1183 4 1140 2 1243 62 207 121
327 415 245 600 -22 49 -94 149 -268 373 -208 267 -223 299 -185 385 38 86 4
82 690 85 l602 3 0 -756 0 -755 300 0 300 0 0 755 0 755 495 0 495 0 0 245 0
245 -1607 -1 c-907 -1 -1625 -5 -1646 -10z"/>
<path d="M6295 5798 c-3 -7 -151 -436 -329 -953 -179 -517 -331 -959 -340
-982 l-15 -43 290 0 c223 0 291 3 294 13 2 6 23 72 45 145 l41 132 302 -1
c166 -1 394 -5 506 -8 l203 -6 46 -147 45 -148 283 0 284 0 -65 188 c-36 103
-192 555 -347 1004 l-283 818 -478 0 c-373 0 -479 -3 -482 -12z m664 -749 c87
-255 162 -474 165 -486 l7 -23 -340 0 c-219 0 -341 4 -341 10 0 8 80 233 318
897 14 40 27 71 29 69 2 -2 75 -212 162 -467z"/>
<path d="M6791 5110 c-1 -3 -35 -99 -76 -215 -41 -115 -75 -213 -75 -217 0 -5
68 -8 150 -8 83 0 150 3 150 8 -1 9 -149 439 -149 432z"/>
<path d="M8480 4816 l0 -996 320 0 320 0 2 378 3 377 110 -106 c390 -374 617
-573 705 -617 l55 -27 673 -3 672 -3 0 103 c0 57 -3 180 -7 274 l-6 172 -537
7 -537 7 -66 57 c-63 54 -137 135 -137 150 0 4 24 20 53 36 105 56 217 137
267 193 67 74 127 196 141 287 11 72 5 186 -13 265 -30 126 -171 294 -305 364
-132 68 -124 67 -960 73 l-753 6 0 -997z m1185 585 c193 -16 277 -93 278 -251
0 -76 -24 -132 -74 -174 -69 -58 -64 -58 -423 -59 l-331 -2 -3 248 -2 247 227
0 c126 -1 273 -5 328 -9z"/>
<path d="M9250 5161 l0 -111 234 0 c145 0 245 4 265 11 76 27 82 146 9 186
-28 15 -66 18 -270 21 l-238 4 0 -111z"/>
<path d="M4126 2448 c-187 -541 -341 -989 -344 -996 -3 -10 54 -12 279 -10
l283 3 43 144 c23 79 44 145 45 146 2 1 231 -1 509 -3 l505 -4 44 -145 c25
-80 49 -147 55 -149 6 -3 134 -3 286 -2 l276 3 -347 995 -346 995 -474 3 -475
2 -339 -982z m989 212 c87 -256 160 -471 162 -477 4 -10 -67 -13 -336 -13
l-341 0 34 93 c19 50 95 259 169 462 155 424 149 407 152 403 1 -2 73 -212
160 -468z"/>
<path d="M4876 2522 c-38 -103 -71 -193 -73 -199 -4 -10 28 -13 141 -13 l145
0 -65 193 c-37 105 -69 195 -73 199 -4 5 -38 -76 -75 -180z"/>
<path d="M750 3413 c0 -5 151 -451 335 -992 184 -541 335 -985 335 -987 0 -2
89 -4 198 -4 l199 0 218 598 c119 328 218 598 220 600 1 1 57 -159 124 -355
67 -197 161 -470 209 -608 l87 -250 199 0 199 0 293 855 c162 470 316 919 343
998 l50 142 -286 -2 -286 -3 -74 -210 c-186 -534 -227 -645 -235 -633 -17 27
-75 185 -188 513 l-118 340 -313 3 c-172 1 -316 -1 -321 -6 -4 -4 -73 -194
-153 -421 -80 -228 -149 -421 -154 -429 -8 -14 -37 65 -239 633 l-78 220 -282
3 c-155 1 -282 -1 -282 -5z"/>
<path d="M9985 3423 c-138 -16 -254 -61 -332 -127 -57 -49 -117 -142 -143
-221 -19 -57 -22 -83 -18 -183 3 -112 5 -120 41 -192 41 -81 70 -119 250 -322
117 -131 177 -216 177 -251 0 -34 -41 -104 -68 -117 -58 -27 -733 -39 -1234
-21 -209 7 -218 9 -255 33 -55 36 -164 150 -161 167 2 8 41 36 87 63 106 61
207 144 261 213 98 126 133 303 90 447 -60 202 -239 385 -450 460 l-65 23
-748 3 -747 3 2 -993 3 -993 306 -3 306 -2 6 187 c4 104 7 277 7 387 l0 198
38 -32 c20 -18 136 -126 257 -240 379 -357 497 -453 589 -477 69 -19 1554 -30
1896 -14 323 14 360 25 476 134 126 117 188 246 188 392 0 146 -15 171 -318
550 -161 202 -187 246 -176 306 4 22 17 53 27 68 l20 26 517 3 516 2 0 265 0
265 -657 -1 c-362 -1 -671 -4 -688 -6z m-1995 -444 c86 -40 145 -135 143 -230
-2 -95 -52 -167 -148 -211 -49 -22 -58 -23 -345 -23 -162 0 -307 3 -322 8
l-28 7 0 236 0 235 333 -3 c280 -3 337 -6 367 -19z"/>
<path d="M7430 2762 l0 -112 235 0 c263 0 292 5 320 60 23 44 13 92 -26 124
-30 25 -35 26 -167 26 -75 0 -188 3 -249 7 l-113 6 0 -111z"/>
</g>
</svg>
